<svg aria-hidden="true" style="position:absolute;width:0;height:0;overflow:hidden" xmlns="http://www.w3.org/2000/svg">
    <defs>
        <symbol id="icon-antenna" viewBox="0 0 32 32">
            <path fill="#212121" style="fill:var(--color1, #212121)"
                d="m30.8 22.1-8.5-8.5 1-4.6.7.1a2.2 2.2 0 1 0-2-1.4l-5 .6L9 .2a.5.5 0 0 0-.4-.2c-.1 0-.3 0-.4.2L6.7 1.7a.5.5 0 0 0 0 .7l.8.8A14.9 14.9 0 0 0 10 21l.2.1v6.7H3.6a2.7 2.7 0 0 0-2.6 2.7v1c0 .4.2.6.5.6h24.5c.3 0 .6-.2.6-.5v-1.1c0-1.5-1.2-2.7-2.7-2.7h-6.4V25a15 15 0 0 0 10.2-1.5h-.1l.8.9.4.1.4-.1 1.5-1.5a.5.5 0 0 0 0-.8zM23.3 6.2c.2-.2.4-.3.7-.3a1 1 0 0 1 0 2.2 1 1 0 0 1-.7-1.9zM22 9.7l-.6 3-1.1-1.2L22 9.7zm-.6-.9-1.9 2L18 9.2l3.4-.5zm2.6 20c.9 0 1.6.7 1.6 1.6v.5H2.1v-.5c0-.9.8-1.6 1.6-1.6H24zm-7.5-2.1v1h-5.3v-1h5.3zm-5.3-1.1v-4c0-1.3 1.2-2.4 2.7-2.4s2.6 1 2.6 2.3v4.1h-5.3zm6.4-1.7v-2.4c0-1.8-1.7-3.4-3.7-3.4-1.4 0-2.6.7-3.3 1.8A13.8 13.8 0 0 1 8.3 4V4L27 22.7a13.6 13.6 0 0 1-9.4 1.2h.1zm11.3-.7L7.9 2l.7-.7 8 8 13 13.2-.7.7z" />
            <path fill="#2196f3" style="fill:var(--color2, #2196f3)"
                d="M13.9 20.3a1.6 1.6 0 0 0 0 3.2 1.6 1.6 0 0 0 0-3.2zm.3 2-.3.1a.5.5 0 0 1 0-1 .5.5 0 0 1 .3.8z" />
        </symbol>
        <symbol id="icon-astronaut" viewBox="0 0 32 32">
            <path fill="#2196f3" style="fill:var(--color2, #2196f3)"
                d="M32 4.5c0-.2-.3-.3-.5-.3l-1.9-.3-.8-1.7c-.2-.4-.8-.4-1 0L27 3.9l-2 .3a.5.5 0 0 0-.2.9L26 6.4l-.3 2c0 .1 0 .3.2.4.2.2.4.2.6 0l1.7-.8 1.7.9h.3a.5.5 0 0 0 .5-.6l-.3-1.9 1.3-1.3a.5.5 0 0 0 .2-.6zM29.5 6c-.1 0-.2.2-.1.4l.1 1.1-1-.5a.5.5 0 0 0-.5 0l-1 .5.2-1v-.2l-.1-.3-.8-.8 1.1-.2c.2 0 .3-.1.4-.3l.5-1 .5 1c0 .2.2.3.4.3l1.1.2-.8.8zm-3.4 14.6h-1v1h1v-1zm0 2.2h-1v1h1v-1zm1.1-1.1h-1v1h1v-1zm-2.1 0H24v1h1v-1zm-2.7 4.8h-1v1h1v-1zm0 2.1h-1v1h1v-1zm1-1h-1v1h1v-1zm-2 0h-1.1v1h1v-1zM16 24.3h-1v1h1v-1zm0 2h-1v1.2h1v-1.1zm1-1h-1v1h1v-1zm-2 0h-1.1v1h1v-1zM5.8 6.1H4.8v1h1v-1zm0 2.2H4.8v1h1v-1zm1-1.1H6v1h1v-1zm-2.1 0h-1v1h1v-1z" />
            <path fill="#212121" style="fill:var(--color1, #212121)"
                d="M24.7 14.2c-.3-.4-.7-.7-1.2-.7h-.2c-.4 0-.8 0-1.1.3l-1.3 1-1.9 1.4-1.3-.6a7 7 0 0 0-2.9-13.2A7 7 0 0 0 9 13H6l-3.2 1.6-2 1A1.8 1.8 0 0 0 .2 18c.2.4.6.7 1 .8l.6.1c.3 0 .6 0 .8-.2L4 18l2.3-1.2h1.3l-5.4 5.4-1.3 1.3c-.3.3-.5.8-.5 1.2 0 1 .7 1.7 1.6 1.7.5 0 .9-.2 1.2-.5l1.3-1.3 1.8-1.3.9.9-3.1 3c-.3.4-.5.8-.5 1.3A1.7 1.7 0 0 0 5.2 30c.5 0 .9-.1 1.2-.5l4.5-4.4 5.2-5.7 3.5.5a.5.5 0 0 0 .2 0l.1-.1 3.3-2.1 1.3-1.3a1.8 1.8 0 0 0 .2-2.3zM2.1 17.8a.7.7 0 0 1-.5 0 .7.7 0 0 1-.2-1.2l1.3-.7.3 1 .1.3-1 .6zm3.5-1.9-1.5.8-.3-.7-.2-.5 2-1v1.4zm15.1-6.6c0 1-.2 1.8-.6 2.6l-4.2-2c0-.5-.3-1-.7-1.3l1.4-4.9c2.4.8 4.1 3 4.1 5.6zM9 9.3a5.9 5.9 0 0 1 6.7-5.8L14 8.3c-1 0-1.9.8-1.9 1.8s.9 1.9 1.9 1.9c.7 0 1.3-.4 1.6-1l3.9 1.8A5.9 5.9 0 0 1 8.9 9.3zm6 .8a.8.8 0 0 1-1.6 0c0-.4.3-.8.8-.8s.8.4.8.8zm-12.4 15a.6.6 0 0 1-.9 0 .6.6 0 0 1 0-.8l1-1 .8.9-1 1zM5.7 29a.6.6 0 0 1-.9 0 .6.6 0 0 1 0-.9l1-1 .8 1-1 .9zm3.5-3.5-1.8 1.8-.9-.9 1.8-1.7.1-.2v-.5h-.1l-1.6-1.7h-.1l-.1-.1H6l-1.8 1.4-.9-1 2.4-2.3 4.4 4.3-1 1zm6.8-7h-.4v.1l-4.8 5.2-4.3-4.2 2.8-2.9a.5.5 0 0 0-.4-.9H6.7v-1.6h3.1a7 7 0 0 0 5 2.2c.5 0 .9 0 1.3-.2l.1.1 2.4 1 .2.7.2 1-3-.5zm4 .2-.3-1.6 1.5-1 .9 1.2-2 1.4zm3.8-2.9-.9.8-.9-1.2.8-.6c.2-.2.4-.2.6-.2a.7.7 0 0 1 .4 1.2z" />
            <path fill="#212121" style="fill:var(--color1, #212121)"
                d="m13.6 18.5-2.1-2a.5.5 0 0 0-.8 0l-2.1 2-.2.4c0 .1 0 .3.2.4l2.1 2.1a.5.5 0 0 0 .8 0l2.1-2.1a.5.5 0 0 0 0-.8zm-2.5 1.8-1.4-1.4 1.4-1.4 1.4 1.4-1.4 1.4zm6-15.2L17 6s1.7.5 1.7 2.2h1.1c0-2-1.7-3-2.5-3.2zm2.6 4.2h-1v1h1v-1z" />
        </symbol>
        <symbol id="icon-clock" viewBox="0 0 32 32">
            <path fill="#212121" style="fill:var(--color1, #212121)"
                d="M31.3 15.3a15.3 15.3 0 1 0-20 14.6H12l.2-.4 4-12.3a2 2 0 1 0-1-3.6l-5-5.1a.6.6 0 0 0-1 .9l5.2 5c-.2.3-.2.6-.2 1 0 .5.3 1 .7 1.4l-3.7 11.7a14 14 0 1 1 10.7-.4h-.1l-.4-1.9a.6.6 0 0 0-1-.3l-3.9 3.4-.2.5c0 .3.2.5.4.6l5 1.6h.1a.6.6 0 0 0 .7-.8l-.4-1.8c5.5-2.4 9.3-7.8 9.3-14v-.1zM16 14.7a.6.6 0 0 1 0 1.2.6.6 0 0 1 0-1.2zm2 14.8 2.3-2 .6 3-2.8-1z" />
            <path fill="#2196f3" style="fill:var(--color2, #2196f3)"
                d="M15.4 3.2v1.3a.6.6 0 0 0 1.2 0V3.2a.6.6 0 1 0-1.2 0zM3.9 14.7a.6.6 0 0 0 0 1.2h1.3a.6.6 0 0 0 0-1.2H3.9zM28 15.9a.6.6 0 0 0 0-1.2h-1.3a.6.6 0 0 0 0 1.2h1.3z" />
        </symbol>
        <symbol id="icon-diagram" viewBox="0 0 32 32">
            <path fill="#2196f3" style="fill:var(--color2, #2196f3)"
                d="M15 15h1v4.8h-1V15zm4.2 2.1h1v2.7h-1V17zm-8.5 1.6h1v1h-1v-1zm-3.2-.5h1v1.6h-1v-1.6z" />
            <path fill="#212121" style="fill:var(--color1, #212121)"
                d="M1.6 28.3h25.6c.9 0 1.6-.7 1.6-1.6v-2.1c0-1-.7-1.6-1.6-1.6h-.5V9.7l3-2.9.7.2a1.6 1.6 0 1 0-1.5-1l-2.2 2.2V7c0-1-.8-1.6-1.6-1.6H3.7c-.9 0-1.6.7-1.6 1.6v16h-.5c-.9 0-1.6.7-1.6 1.6v2c0 1 .7 1.7 1.6 1.7zM30.4 4.8a.5.5 0 0 1 0 1.1.5.5 0 0 1 0-1zM3.2 7c0-.3.2-.6.5-.6h21.4c.2 0 .5.3.5.6v2.2l-1 1V8c0-.3-.3-.5-.6-.5H4.8c-.3 0-.5.2-.5.5v13.4c0 .3.2.5.5.5H24c.3 0 .5-.2.5-.5v-9.7l1-1V23H3.3V7zM8 13.9A1.6 1.6 0 1 0 9 16.6l1.9 1 .6-.1 4-4.5 3.8 3 .7-.1 3.4-3.2v8.1H5.3V8.6h18.2v2.6l-3.8 3.6-4-3h-.2l-.4.1-4 4.5-1.5-.7v-.2c0-.9-.7-1.6-1.6-1.6zm.5 1.6a.5.5 0 0 1-1 0 .5.5 0 0 1 1 0zm3.2 8.5h5.4v.6c0 .3-.3.5-.6.5h-4.2a.5.5 0 0 1-.6-.5V24zm-10.6.6c0-.3.2-.6.5-.6h9v.6c0 .8.8 1.6 1.7 1.6h4.2c1 0 1.6-.8 1.6-1.6V24h9c.4 0 .6.3.6.6v2c0 .4-.2.6-.5.6H1.6a.5.5 0 0 1-.5-.5v-2.1z" />
        </symbol>
        <symbol id="icon-envelope" viewBox="0 0 43 32">
            <path
                d="M38.7 0H4a4 4 0 0 0-4 4v24a4 4 0 0 0 4 4h34.7a4 4 0 0 0 4-4V4a4 4 0 0 0-4-4zm0 2.7h.5L21.3 18.3 3.5 2.8l.5-.1h34.7zm0 26.6H4c-.7 0-1.3-.6-1.3-1.3V5.6L20.5 21c.2.2.5.3.8.3s.7 0 1-.3L40 5.6V28c0 .7-.6 1.3-1.3 1.3z" />
        </symbol>
        <symbol id="icon-facebook-g" viewBox="0 0 32 32">
            <path
                d="M21.3 5.3h3v-5C23 0 21.6 0 20 0H20c-4.2 0-7.1 2.6-7.1 7.5V12H8.2v5.7H13V32h5.7V17.7H23l.7-5.7h-5.2V8c0-1.6.4-2.7 2.7-2.7z" />
        </symbol>
        <symbol id="icon-instagram-g" viewBox="0 0 32 32">
            <path
                d="M32 9.4c-.1-1.7-.4-2.9-.8-3.9s-1-2-1.8-2.8A8 8 0 0 0 26.6.9c-1-.5-2.2-.7-4-.8a108.2 108.2 0 0 0-17 .7c-1.1.5-2 1-2.9 1.9C2 3.5 1.3 4.4 1 5.5.5 6.5.2 7.7.2 9.4a108.2 108.2 0 0 0 .7 17 8 8 0 0 0 1.8 3c.8.7 1.8 1.4 2.9 1.8 1 .4 2.2.6 3.9.7a117.3 117.3 0 0 0 17-.7 8.2 8.2 0 0 0 4.7-4.7c.4-1 .7-2.2.8-3.9V9.4zm-3 13c0 1.6-.2 2.5-.5 3a5.3 5.3 0 0 1-3 3c-.6.3-1.4.6-3 .6a112.7 112.7 0 0 1-15.9-.5 5 5 0 0 1-1.8-1.2 5 5 0 0 1-1.2-1.8c-.2-.6-.5-1.5-.5-3a112.7 112.7 0 0 1 .5-16c.3-.6.7-1.3 1.2-1.8a5 5 0 0 1 1.8-1.1c.6-.3 1.5-.5 3-.6a114.2 114.2 0 0 1 16 .5 5 5 0 0 1 1.7 1.2 5 5 0 0 1 1.2 1.9c.3.5.5 1.4.6 3a112.7 112.7 0 0 1 0 12.9z" />
            <path
                d="M16 7.8A8.2 8.2 0 0 0 7.9 16a8.2 8.2 0 0 0 16.5 0c0-4.5-3.7-8.2-8.2-8.2zm0 13.5a5.3 5.3 0 0 1 0-10.6 5.3 5.3 0 1 1 0 10.6zM26.6 7.5a2 2 0 0 1-3.8 0 2 2 0 0 1 3.8 0z" />
        </symbol>
        <symbol id="icon-linkedin-g" viewBox="0 0 32 32">
            <path
                d="M32 32V20.3c0-5.8-1.2-10.2-8-10.2a7 7 0 0 0-6.2 3.4h-.1v-2.9h-6.4V32H18V21.4c0-2.8.6-5.5 4-5.5s3.5 3.2 3.5 5.7V32H32zM.5 10.6h6.7V32H.5V10.6zM3.8 0A3.8 3.8 0 0 0 0 3.8c0 2.2 1.7 4 3.8 4 2.2 0 3.9-1.8 3.9-4S6 0 3.8 0z" />
        </symbol>
        <symbol id="icon-smartphone" viewBox="0 0 20 32">
            <path
                d="M17 0H3a3 3 0 0 0-3 3v26a3 3 0 0 0 3 3h14a3 3 0 0 0 3-3V3a3 3 0 0 0-3-3zM3 2h14c.6 0 1 .4 1 1v21H2V3c0-.6.4-1 1-1zm14 28H3a1 1 0 0 1-1-1v-3h16v3c0 .6-.4 1-1 1z" />
            <path fill="#757575" style="fill:var(--color4, #757575)"
                d="M4.7 27.5a.9.9 0 0 1 0 1.3 1 1 0 0 1-1.4 0 .9.9 0 0 1 0-1.3 1 1 0 0 1 1.4 0z" />
        </symbol>
        <symbol id="icon-twitter-g" viewBox="0 0 32 32">
            <path
                d="M32 6c-1.1.6-2.4 1-3.7 1.1 1.3-.8 2.3-2 2.8-3.6-1.2.7-2.6 1.3-4 1.6h-.2a6.5 6.5 0 0 0-11.3 4.5c0 .5 0 1 .2 1.5A18.6 18.6 0 0 1 2.2 4.2c-.5 1-.9 2-.9 3.3 0 2.3 1.2 4.3 3 5.5-1.1 0-2.2-.4-3-.9v.1c0 3.2 2.2 5.8 5.2 6.5l-1.6.2-1.3-.1a6.6 6.6 0 0 0 6.1 4.5 13 13 0 0 1-8.1 2.8H-.2 0A18.5 18.5 0 0 0 28.7 9.5c1.3-1 2.4-2 3.3-3.4z" />
        </symbol>
        <symbol id="icon-brand" viewBox="0 0 57 32">
            <path
                d="M14.293 23.84c0.107 0.16 0.16 0.373 0.16 0.533l-0.053 0.373-0.213 0.267c-0.267 0.213-0.587 0.267-0.907 0.267h-1.547v-3.307h1.493c0.32 0 0.64 0.053 0.853 0.213l0.213 0.267 0.107 0.373c0 0.16-0.053 0.373-0.213 0.533l-0.427 0.213c0.213 0 0.373 0.16 0.533 0.267zM12.48 23.36h0.64c0.107 0 0.267 0 0.373-0.107l0.107-0.16 0.053-0.16v-0.16l-0.16-0.16c-0.107-0.107-0.267-0.107-0.427-0.107h-0.587v0.853zM13.547 24.64l0.16-0.16v-0.373l-0.107-0.16c-0.16-0.107-0.32-0.107-0.48-0.107h-0.64v0.907h0.64c0.16 0 0.32 0 0.48-0.107zM17.387 25.28l-0.853-1.28h-0.32v1.28h-0.747v-3.307h1.387c0.373 0 0.693 0.107 0.96 0.267 0.213 0.213 0.32 0.427 0.32 0.693s-0.053 0.533-0.213 0.693c-0.16 0.16-0.427 0.267-0.64 0.32l0.907 1.333h-0.8zM16.213 23.52h0.587c0.427 0 0.64-0.16 0.64-0.48l-0.053-0.213c-0.027-0.062-0.063-0.115-0.107-0.16l0 0-0.48-0.16h-0.587v1.067zM21.333 24.64h-1.44l-0.267 0.64h-0.747l1.333-3.253h0.8l1.333 3.253h-0.747l-0.267-0.64zM21.12 24.107l-0.533-1.387-0.533 1.387h1.067zM26.293 25.28h-0.693l-1.6-2.24v2.24h-0.747v-3.307h0.693l1.6 2.24v-2.24h0.747v3.307zM30.4 24.533c-0.107 0.213-0.373 0.427-0.64 0.533-0.32 0.16-0.64 0.213-1.013 0.213h-1.28v-3.307h1.333c0.373 0 0.693 0.053 1.067 0.213 0.213 0.107 0.48 0.32 0.587 0.533 0.143 0.254 0.228 0.557 0.228 0.88s-0.084 0.626-0.233 0.889l0.005-0.009zM29.6 24.427c0.195-0.209 0.315-0.491 0.315-0.8s-0.12-0.591-0.316-0.801l0.001 0.001c-0.267-0.213-0.533-0.32-0.907-0.267h-0.533v2.133h0.533c0.32 0 0.64-0.107 0.907-0.267zM21.813 3.627s9.28 3.2 9.067 7.84v7.893s-9.28-3.2-9.067-7.893v-7.84zM39.2 17.493c1.76-1.067 3.733-1.76 5.867-1.973v-2.453c-2.425 0.857-4.431 2.398-5.842 4.389l-0.025 0.037z">
            </path>
            <path
                d="M38.133 18.24c1.44-2.667 3.947-4.693 6.933-5.707v-7.093s-13.227 4.587-12.96 11.2v11.2l1.547-0.587v-1.067c0.32-3.093 1.92-5.92 4.48-7.947z">
            </path>
            <path
                d="M36.853 22.4c0.107-0.747 0.213-1.547 0.48-2.293-1.678 1.77-2.738 4.14-2.826 6.756l-0 0.017 2.56-1.227c-0.213-1.067-0.32-2.133-0.213-3.2zM37.387 22.4c-0.029 0.287-0.045 0.62-0.045 0.957 0 0.718 0.075 1.419 0.217 2.096l-0.012-0.066c3.627-1.973 7.68-5.067 7.52-8.747v-0.32c-2.56 0.267-5.013 1.28-6.88 2.933-0.427 1.067-0.693 2.133-0.8 3.2z">
            </path>
        </symbol>
        <symbol id="icon-company" viewBox="0 0 57 32">
            <path
                d="M19.413 26.187l0.16 0.107-0.32 0.213-0.48 0.107c-0.16 0-0.267 0-0.427-0.107l-0.32-0.16-0.213-0.32c-0.049-0.118-0.078-0.256-0.078-0.4s0.029-0.282 0.080-0.407l-0.003 0.007 0.213-0.32c0.107-0.053 0.213-0.16 0.373-0.16 0.127-0.043 0.274-0.067 0.427-0.067s0.299 0.025 0.436 0.070l-0.010-0.003 0.32 0.16-0.107 0.107h-0.16l-0.053-0.053c-0.115-0.067-0.253-0.107-0.4-0.107-0.009 0-0.019 0-0.028 0l0.001-0-0.32 0.053-0.267 0.16c0 0.107-0.107 0.16-0.16 0.267v0.64l0.16 0.213 0.267 0.16h0.48c0.144-0.016 0.272-0.074 0.374-0.161l-0.001 0.001h0.053zM22.773 25.6l-0.053 0.427-0.267 0.32-0.32 0.16c-0.267 0.107-0.587 0.107-0.907 0-0.122-0.038-0.229-0.092-0.323-0.162l0.003 0.002-0.213-0.32c-0.049-0.118-0.078-0.256-0.078-0.4s0.029-0.282 0.080-0.407l-0.003 0.007c0-0.107 0.107-0.213 0.213-0.32l0.32-0.16c0.32-0.107 0.64-0.107 0.907 0l0.32 0.16c0.197 0.167 0.322 0.416 0.322 0.693 0 0.019-0.001 0.038-0.002 0.057l0-0.003zM22.453 25.6v-0.267c-0.064-0.205-0.222-0.363-0.422-0.425l-0.005-0.001c-0.096-0.031-0.206-0.049-0.32-0.049s-0.224 0.018-0.328 0.051l0.008-0.002-0.267 0.16-0.16 0.267v0.587c0.064 0.205 0.222 0.363 0.422 0.425l0.005 0.001h0.64l0.213-0.16c0.107-0.053 0.16-0.16 0.16-0.267l0.053-0.267zM25.067 25.973v0.053l0.053-0.053v-0.107l0.8-1.173h0.373v1.867h-0.267v-1.493l-0.747 1.173-0.107 0.053h-0.107l-0.907-1.227v1.547h-0.267v-1.867h0.32l0.747 1.173 0.053 0.107zM27.84 25.867v0.693h-0.267v-1.867h1.013c0.107 0 0.16 0.107 0.267 0.16l0.107 0.16 0.053 0.267v0.213l-0.213 0.213-0.213 0.107-0.373 0.053h-0.373zM27.84 25.653h0.587l0.16-0.107 0.107-0.107v-0.373c0-0.053 0-0.107-0.107-0.16l-0.373-0.107h-0.373v0.8zM31.787 26.56h-0.32l-0.213-0.533h-1.013l-0.213 0.533h-0.32l0.853-1.867h0.32l0.907 1.867zM30.347 25.867h0.8l-0.32-0.747-0.107-0.213v0.213l-0.373 0.747zM33.067 24.693l1.28 1.44v-1.44h0.267v1.867h-0.213l-1.333-1.493v1.44h-0.267v-1.867h0.213zM36.747 25.813v0.747h-0.267v-0.747l-0.853-1.12h0.373l0.533 0.8c0.019 0.044 0.037 0.097 0.052 0.152l0.002 0.008 0.053-0.107 0.053-0.053 0.533-0.747v-0.053h0.32l-0.747 1.12zM24.907 21.493h0.427c1.934-0.748 3.542-1.978 4.727-3.546l0.019-0.027c1.173-1.6 1.76-3.413 1.707-5.333l-2.133-1.813c0.131 0.595 0.206 1.278 0.206 1.979 0 1.428-0.312 2.783-0.871 4.001l0.025-0.060c-0.908 1.992-2.315 3.621-4.065 4.774l-0.042 0.026z">
            </path>
            <path
                d="M24.16 21.333v0.053c2.027-1.227 3.52-2.933 4.373-4.907s0.96-4.16 0.373-6.187l-3.040-2.667c0.962 1.642 1.53 3.616 1.53 5.722 0 3.105-1.234 5.922-3.239 7.987l0.003-0.003zM34.613 14.827c-0.585 2.2-1.871 4.040-3.6 5.315l-0.026 0.019-1.76 1.067c1.558-0.405 2.916-1.105 4.073-2.042l-0.020 0.016c1.067-0.907 2.027-2.027 2.56-3.253l-1.227-1.067z">
            </path>
            <path
                d="M34.133 14.56l-1.813-1.6c0 1.813-0.587 3.52-1.653 5.013s-2.56 2.72-4.373 3.573l1.227-0.053c1.653-0.587 3.147-1.6 4.267-2.773 1.087-1.123 1.888-2.529 2.28-4.098l0.013-0.062zM24.427 6.507l-2.133-1.867c-1.896 0.618-3.489 1.729-4.679 3.182l-0.014 0.018c-1.087 1.346-1.749 3.075-1.76 4.957v0.003c0 1.973 0.747 3.84 2.133 5.333 1.387 1.6 3.36 2.667 5.493 3.2 1.996-2.037 3.228-4.83 3.228-7.91 0-2.593-0.873-4.982-2.341-6.89l0.020 0.027zM38.987 14.24c0-2.293-1.067-4.533-2.933-6.133-1.898-1.63-4.386-2.623-7.105-2.623-1.276 0-2.5 0.218-3.638 0.62l0.077-0.024 12.96 11.307c0.427-1.013 0.64-2.080 0.64-3.147z">
            </path>
        </symbol>
        <symbol id="icon-foster-peters" viewBox="0 0 57 32">
            <path
                d="M12.853 11.253c-1.28 0-2.293 0.907-2.293 2.080 0 1.12 1.067 2.027 2.293 2.027 1.28 0 2.347-0.907 2.347-2.027 0-1.173-1.067-2.080-2.347-2.080zM29.973 10.613c0-1.6-0.693-3.093-1.973-4.267-1.227-1.067-2.933-1.707-4.747-1.707-1.76 0-3.467 0.64-4.747 1.76-1.227 1.067-1.92 2.667-1.92 4.213v8.693s13.333-1.333 13.333-8.693zM5.867 22.133c0 1.12 0.533 2.133 1.387 2.933 0.867 0.755 2.005 1.218 3.252 1.227h0.002c1.28 0 2.453-0.427 3.307-1.227 0.821-0.702 1.349-1.726 1.386-2.874l0-0.006v-6.080s-9.333 0.907-9.333 6.027zM10.507 23.2c-0.213 0-0.48 0-0.64-0.16-0.213-0.107-0.373-0.267-0.48-0.48-0.053-0.16-0.107-0.427-0.053-0.587 0-0.213 0.16-0.427 0.32-0.533 0.16-0.213 0.427-0.32 0.64-0.32h0.693c0.213 0.107 0.427 0.267 0.533 0.427 0.14 0.172 0.225 0.395 0.225 0.637 0 0.297-0.128 0.564-0.331 0.749l-0.001 0.001-0.427 0.213-0.48 0.107zM19.947 22.667h-0.907v0.907h-0.373v-2.24h1.44v0.427h-1.013v0.533h0.907v0.427zM22.187 22.507c0 0.213 0 0.427-0.107 0.533-0.146 0.317-0.461 0.534-0.826 0.534-0.009 0-0.019-0-0.028-0l0.001 0c-0.16 0-0.32 0-0.533-0.107l-0.32-0.373-0.107-0.587v-0.107c0-0.213 0-0.427 0.107-0.587 0.146-0.317 0.461-0.534 0.826-0.534 0.009 0 0.019 0 0.028 0l-0.001-0c0.213 0 0.373 0 0.533 0.107 0.107 0.107 0.267 0.267 0.32 0.427 0.107 0.16 0.107 0.373 0.107 0.533v0.16zM21.76 22.4c0-0.267-0.053-0.427-0.16-0.533-0.075-0.128-0.212-0.213-0.369-0.213-0.001 0-0.003 0-0.004 0h0c-0.16 0-0.267 0.053-0.373 0.213l-0.107 0.533v0.107c0 0.213 0 0.373 0.107 0.533 0.107 0.107 0.213 0.16 0.373 0.16s0.32 0 0.373-0.16c0.107-0.107 0.107-0.32 0.16-0.533v-0.107zM23.733 22.933s0-0.107-0.107-0.16l-0.32-0.16c-0.16 0-0.32-0.107-0.373-0.16-0.267-0.107-0.427-0.32-0.427-0.533l0.107-0.32c0.107-0.107 0.16-0.213 0.32-0.267l0.427-0.053 0.427 0.053 0.32 0.267 0.107 0.373h-0.48c0-0.107 0-0.16-0.107-0.267-0.061-0.036-0.134-0.057-0.213-0.057-0.019 0-0.038 0.001-0.056 0.004l0.002-0-0.267 0.053-0.107 0.213c0 0.053 0 0.107 0.107 0.16l0.32 0.16c0.267 0.053 0.48 0.16 0.587 0.267 0.16 0.16 0.213 0.267 0.213 0.48s-0.107 0.32-0.213 0.48c-0.16 0.107-0.373 0.16-0.64 0.16-0.16 0-0.32 0-0.48-0.107l-0.32-0.267-0.107-0.373h0.48c0 0.213 0.16 0.373 0.427 0.373 0.107 0 0.213 0 0.267-0.107l0.107-0.16zM26.24 21.707h-0.693v1.867h-0.48v-1.867h-0.693v-0.427h1.867v0.427zM27.84 22.613h-0.853v0.587h1.067v0.373h-1.6v-2.24h1.6v0.427h-1.067v0.533h0.907v0.373zM29.12 22.72h-0.32v0.853h-0.427v-2.24h0.8c0.32 0 0.533 0.107 0.64 0.213 0.16 0.107 0.213 0.267 0.213 0.533 0 0.107 0 0.267-0.107 0.373 0 0.107-0.16 0.16-0.267 0.213l0.48 0.96h-0.533l-0.427-0.853zM28.8 22.4h0.427l0.267-0.053 0.053-0.267-0.053-0.267-0.32-0.053h-0.373v0.64zM31.68 22.827v0.8h-0.533v-2.293h0.96l0.427 0.107 0.32 0.267 0.107 0.427c0 0.213-0.107 0.373-0.267 0.533-0.16 0.107-0.373 0.16-0.64 0.16h-0.373zM31.68 22.453h0.427c0.107 0 0.213 0 0.267-0.107l0.107-0.213c0-0.107 0-0.213-0.107-0.267-0.067-0.066-0.16-0.107-0.261-0.107-0.002 0-0.004 0-0.006 0h-0.426v0.64zM34.613 22.667h-0.907v0.587h1.067v0.373h-1.493v-2.293h1.387v0.427h-1.067v0.533h0.907v0.373zM36.8 21.76h-0.693v1.867h-0.48v-1.867h-0.693v-0.427h1.867v0.427zM38.4 22.667h-0.853v0.587h1.067v0.373h-1.547v-2.293h1.547v0.427h-1.067v0.533h0.853v0.373zM39.733 22.773h-0.373v0.853h-0.533v-2.293h0.907c0.267 0 0.48 0.107 0.587 0.213 0.16 0.107 0.213 0.267 0.213 0.533l-0.053 0.373-0.32 0.213 0.533 0.96h-0.533l-0.427-0.853zM39.36 22.4h0.373l0.267-0.053 0.107-0.267c0-0.107 0-0.213-0.107-0.267l-0.267-0.053h-0.373v0.64zM42.080 23.040l-0.053-0.213-0.373-0.16c-0.16 0-0.267-0.107-0.373-0.16-0.267-0.107-0.373-0.32-0.373-0.533 0-0.16 0-0.267 0.107-0.32 0-0.107 0.16-0.213 0.267-0.267l0.427-0.053 0.48 0.053 0.267 0.267 0.107 0.373h-0.48c0-0.107 0-0.16-0.107-0.267-0.061-0.036-0.134-0.057-0.213-0.057-0.019 0-0.038 0.001-0.056 0.004l0.002-0-0.267 0.053-0.107 0.213 0.16 0.16 0.32 0.16c0.267 0.053 0.427 0.16 0.533 0.267 0.16 0.16 0.213 0.267 0.213 0.48s-0.053 0.32-0.213 0.48c-0.16 0.107-0.373 0.16-0.587 0.16s-0.373 0-0.533-0.107l-0.32-0.267-0.107-0.373h0.533c0 0.213 0.107 0.373 0.427 0.373 0.107 0 0.16 0 0.267-0.107l0.053-0.16z">
            </path>
        </symbol>
        <symbol id="icon-tag-line" viewBox="0 0 57 32">
            <path
                d="M28.48 14.613c-0.202-0.265-0.323-0.6-0.323-0.964 0-0.036 0.001-0.072 0.004-0.107l-0 0.005v-1.547c0-0.427 0.107-0.8 0.32-1.067 0.213-0.213 0.587-0.373 1.067-0.373 0.533 0 0.907 0.107 1.067 0.32 0.267 0.267 0.373 0.587 0.32 0.907v0.373h-0.853v-0.693c0-0.107-0.107-0.16-0.16-0.213-0.088-0.067-0.199-0.107-0.32-0.107v0c-0.121 0-0.232 0.040-0.321 0.108l0.001-0.001c-0.107 0-0.16 0.107-0.16 0.213v2.24l0.053 0.533 0.213 0.107 0.213 0.053c0.107 0 0.213 0 0.32-0.107l0.107-0.213v-0.747h0.907v0.373c0 0.32-0.053 0.64-0.267 0.96-0.213 0.213-0.533 0.32-1.067 0.32s-0.907-0.107-1.067-0.373zM32.16 14.613c-0.267-0.213-0.373-0.533-0.373-1.067v-1.6c0-0.427 0.107-0.8 0.373-1.067 0.213-0.16 0.533-0.32 1.067-0.32s0.907 0.16 1.12 0.373c0.213 0.213 0.32 0.533 0.32 1.067v1.6c0 0.427-0.107 0.8-0.32 1.067-0.213 0.213-0.587 0.32-1.067 0.32-0.533 0-0.907-0.107-1.12-0.373zM33.653 14.24l0.107-0.48v-1.973c0-0.16 0-0.32-0.107-0.48l-0.16-0.107c-0.040-0.011-0.086-0.017-0.133-0.017s-0.093 0.006-0.137 0.018l0.004-0.001c-0.032-0.007-0.069-0.011-0.107-0.011s-0.075 0.004-0.11 0.011l0.003-0.001-0.16 0.107c-0.107 0.16-0.16 0.32-0.107 0.48v1.973c0 0.16 0 0.32 0.107 0.533l0.16 0.107c0.071 0.030 0.154 0.047 0.24 0.047s0.169-0.017 0.244-0.048l-0.004 0.002 0.16-0.16zM35.733 10.667h0.96l0.693 2.933 0.747-2.987h0.907l0.053 4.32h-0.64l-0.107-2.987-0.693 2.987h-0.533l-0.693-2.987-0.16 2.987h-0.693l0.107-4.267zM40.16 10.667h1.493c0.853 0 1.28 0.373 1.28 1.173s-0.48 1.173-1.333 1.173h-0.533v1.92h-0.907v-4.267zM41.44 12.48h0.267l0.213-0.16 0.16-0.48-0.053-0.373-0.053-0.107-0.16-0.107c-0.107-0.053-0.267-0.107-0.373-0.053h-0.373v1.28h0.373zM44.267 10.667h0.907l1.067 4.267h-0.907l-0.16-1.013h-0.907l-0.213 1.013h-0.853l1.067-4.267zM45.067 13.44l-0.373-1.813-0.32 1.813h0.693zM46.987 10.667h0.64l1.227 2.4v-2.4h0.747v4.267h-0.587l-1.227-2.56v2.56h-0.853v-4.267zM51.36 13.333l-1.013-2.667h0.853l0.64 1.653 0.533-1.707h0.853l-1.013 2.667v1.653h-0.853v-1.6zM29.867 16.8v0.267h-0.693v1.707h-0.373v-1.707h-0.747v-0.267h1.813zM32.213 18.773h-0.373l-0.213-0.533h-1.013l-0.213 0.533h-0.32l0.907-1.973h0.32l0.907 1.973zM30.72 18.133h0.853l-0.373-0.8-0.053-0.213v0.107l-0.053 0.107-0.373 0.8zM33.76 18.613h0.16c0.115-0.001 0.225-0.021 0.328-0.056l-0.008 0.002 0.107-0.053v-0.48h-0.427v-0.16h0.693v0.747c-0.167 0.11-0.366 0.186-0.58 0.213l-0.007 0.001h-0.267c-0.16 0-0.32 0-0.48-0.107-0.142-0.031-0.267-0.087-0.377-0.162l0.004 0.002-0.213-0.32-0.107-0.427c0-0.16 0-0.267 0.107-0.427 0-0.107 0.107-0.213 0.213-0.32 0.107-0.053 0.213-0.16 0.373-0.16 0.173-0.073 0.374-0.115 0.585-0.115 0.057 0 0.113 0.003 0.168 0.009l-0.007-0.001c0.142 0.035 0.266 0.090 0.378 0.163l-0.005-0.003 0.16 0.107-0.053 0.107h-0.213l-0.16-0.107c-0.109-0.054-0.235-0.092-0.368-0.106l-0.005-0c-0.138 0.014-0.265 0.051-0.379 0.109l0.006-0.003-0.267 0.107-0.16 0.267v0.693c0 0.107 0.107 0.213 0.213 0.267 0.142 0.133 0.334 0.214 0.545 0.214 0.015 0 0.029-0 0.044-0.001l-0.002 0zM36.64 18.56h1.013v0.213h-1.28v-1.973h0.267v1.76zM38.667 18.773h-0.267v-1.973h0.32v1.973zM39.84 16.8v0.053l1.387 1.493v-1.547h0.267v1.973h-0.267l-1.333-1.493v1.547h-0.267v-1.973h0.16zM43.733 16.8v0.213h-1.067v0.693h0.853v0.213h-0.853v0.64h1.067v0.213h-1.387v-1.973h1.387zM11.307 4.64l13.76 3.36v11.733l-13.76-3.36v-11.733zM10.4 3.573v13.493l15.52 3.733v-13.333l-15.467-3.84z">
            </path>
            <path d="M18.72 27.040l-15.52-3.787v-13.44l15.52 3.84v13.333z"></path>
            <path
                d="M10.667 4.48l13.547 3.307-5.76 5.013-13.547-3.36 5.76-4.96zM10.4 3.627l-7.2 6.187 15.52 3.84 7.2-6.24-15.467-3.787zM19.573 26.293l6.4-5.493-6.4-1.547v7.040z">
            </path>
        </symbol>
        <symbol id="icon-tagline-here" viewBox="0 0 57 32">
            <path
                d="M26.72 3.2h-0.587c-0.103-0.003-0.225-0.005-0.347-0.005s-0.243 0.002-0.364 0.005l0.018-0c-1.973 0-3.893 0.533-5.653 1.333l-0.267 0.107v11.893l0.533-0.213c1.743-0.592 3.752-0.959 5.84-1.013l0.027-0.001v1.6h-0.587c-2.696 0.137-5.192 0.871-7.397 2.072l0.091-0.045v-15.147c2.29-1.369 5.049-2.181 7.998-2.187h0.268c1.008 0.045 1.959 0.179 2.879 0.394l-0.105-0.021v1.493c-0.64-0.16-1.28-0.213-1.92-0.267h-0.48zM29.387 4.747h1.067c2.956-0.008 5.73-0.778 8.138-2.124l-0.085 0.044v14.933c-2.273 1.328-5.003 2.113-7.918 2.113-1.086 0-2.146-0.109-3.171-0.316l0.102 0.017v-14.933c0.556 0.129 1.214 0.224 1.886 0.265l0.034 0.002zM36.96 4.853l-0.533 0.16-1.493 0.48c-1.346 0.355-2.892 0.558-4.485 0.558-0.336 0-0.67-0.009-1.001-0.027l0.046 0.002h-0.427v12.107h0.32l1.067 0.107c2.313-0.004 4.496-0.556 6.429-1.531l-0.082 0.038 0.213-0.107v-11.787z">
            </path>
            <path
                d="M19.040 24.107c-0.14-0.13-0.327-0.21-0.533-0.213h-0.374c-0.314 0.113-0.535 0.408-0.535 0.755 0 0.016 0 0.032 0.001 0.047l-0-0.002v2.027c0 0.16 0 0.32 0.107 0.427 0 0.107 0.107 0.213 0.16 0.267l0.32 0.16h0.587c0.315-0.13 0.533-0.435 0.533-0.791 0-0.003-0-0.006-0-0.009v0-0.213h-0.533v0.32l-0.213 0.213h-0.107c-0.015 0.003-0.032 0.005-0.050 0.005-0.089 0-0.168-0.044-0.216-0.111l-0.001-0.001-0.053-0.32v-1.92l0.053-0.267c0.042-0.095 0.136-0.161 0.245-0.161 0.008 0 0.015 0 0.023 0.001l-0.001-0c0.096 0.012 0.176 0.074 0.213 0.158l0.001 0.002c0.107 0.053 0.107 0.16 0.107 0.267v0.16h0.533v-0.213c-0.006-0.249-0.107-0.474-0.267-0.64l0 0zM22.187 24.107c-0.163-0.131-0.372-0.21-0.6-0.21-0.11 0-0.215 0.018-0.314 0.052l0.007-0.002c-0.107 0-0.213 0.053-0.267 0.16l-0.213 0.267-0.053 0.373v1.973l0.053 0.373c0 0.107 0.107 0.213 0.213 0.267 0.053 0.107 0.16 0.16 0.267 0.16 0.095 0.037 0.205 0.058 0.32 0.058s0.225-0.021 0.326-0.060l-0.006 0.002c0.107 0 0.213-0.053 0.267-0.16 0.165-0.156 0.267-0.376 0.267-0.62 0-0.007-0-0.014-0-0.021l0 0.001v-1.973l-0.053-0.373c0-0.107-0.107-0.213-0.213-0.267zM21.973 26.72c0 0.002 0 0.003 0 0.005 0 0.102-0.041 0.194-0.107 0.261l0-0c-0.068 0.069-0.162 0.112-0.267 0.112s-0.199-0.043-0.267-0.112l-0-0c-0.066-0.067-0.107-0.16-0.107-0.261 0-0.002 0-0.004 0-0.006v0-1.973c-0-0.002-0-0.003-0-0.005 0-0.102 0.041-0.194 0.107-0.261l-0 0c0.068-0.069 0.162-0.112 0.267-0.112s0.199 0.043 0.267 0.112l0 0c0.066 0.067 0.107 0.16 0.107 0.261 0 0.002 0 0.004-0 0.006v-0 1.973zM26.347 27.573v-3.68h-0.533l-0.64 1.973-0.693-1.973h-0.533v3.68h0.533v-2.24l0.533 1.6h0.267l0.533-1.6v2.24h0.533zM29.333 24.16l-0.32-0.213h-1.173v3.627h0.533v-1.44h0.267c0.16 0 0.32 0 0.48-0.107l0.267-0.267 0.16-0.32c0.028-0.144 0.044-0.31 0.044-0.48s-0.016-0.336-0.047-0.496l0.003 0.016-0.213-0.32zM29.067 25.227l-0.053 0.267-0.16 0.107c-0.040 0.011-0.086 0.017-0.133 0.017s-0.093-0.006-0.137-0.018l0.004 0.001h-0.213v-1.227h0.267l0.213 0.053 0.16 0.16v0.693zM31.787 23.893h-0.427l-0.8 3.68h0.533l0.16-0.8h0.693l0.16 0.8h0.533l-0.853-3.68zM31.307 26.293l0.267-1.333 0.267 1.333h-0.533zM35.2 26.133l-0.853-2.24h-0.48v3.68h0.533v-2.187l0.8 2.187h0.533v-3.68h-0.533v2.24zM38.4 23.893l-0.427 1.44-0.48-1.44h-0.533l0.747 2.133v1.547h0.533v-1.6l0.693-2.080h-0.533zM17.6 28.587h0.267v0.747h0.16v-0.747h0.267v-0.107h-0.693v0.107zM19.733 28.48l-0.32 0.853h0.16l0.053-0.213h0.373l0.053 0.213h0.213l-0.373-0.853h-0.16zM19.733 29.013l0.053-0.373 0.16 0.32h-0.267zM21.867 29.013h0.16v0.107l-0.213 0.053c-0.005 0-0.012 0.001-0.018 0.001-0.055 0-0.104-0.021-0.142-0.054l0 0-0.107-0.213c0-0.213 0.107-0.32 0.267-0.32 0.016-0.006 0.034-0.009 0.054-0.009 0.088 0 0.16 0.072 0.16 0.16 0 0.003-0 0.006-0 0.010l0-0h0.16c0-0.213-0.16-0.32-0.373-0.32l-0.32 0.107c-0.071 0.076-0.115 0.178-0.115 0.291 0 0.029 0.003 0.058 0.008 0.085l-0-0.003c0 0.107 0 0.213 0.107 0.32 0.075 0.067 0.175 0.108 0.284 0.108 0.013 0 0.025-0.001 0.038-0.002l-0.002 0c0.16 0 0.267 0 0.373-0.16v-0.32h-0.373v0.16zM24 28.48h-0.213v0.853h0.587v-0.16h-0.373v-0.693zM25.76 28.48h-0.16v0.853h0.16v-0.853zM27.52 29.013l-0.32-0.533h-0.16v0.853h0.16v-0.533l0.32 0.533h0.16v-0.853h-0.16v0.533zM29.12 28.96h0.427v-0.16h-0.427v-0.213h0.48v-0.107h-0.64v0.853h0.64v-0.16h-0.48v-0.213zM33.067 28.8h-0.373v-0.32h-0.16v0.853h0.16v-0.373h0.32v0.373h0.16v-0.853h-0.107v0.32zM34.667 28.96h0.373v-0.16h-0.373v-0.213h0.48v-0.107h-0.64v0.853h0.64v-0.16h-0.48v-0.213zM36.8 28.96c0.16 0 0.213-0.107 0.213-0.267 0.001-0.005 0.001-0.012 0.001-0.018 0-0.055-0.021-0.104-0.054-0.142l0 0c-0.065-0.035-0.142-0.055-0.224-0.055-0.015 0-0.030 0.001-0.045 0.002l0.002-0h-0.373v0.853h0.213v-0.373h0.107l0.053 0.107 0.213 0.267h0.213l-0.107-0.16-0.213-0.213zM36.64 28.8h-0.107v-0.213h0.267c0.059 0 0.107 0.048 0.107 0.107s-0.048 0.107-0.107 0.107v0c-0.024 0.004-0.052 0.006-0.080 0.006s-0.056-0.002-0.083-0.006l0.003 0zM38.453 28.96h0.427v-0.16h-0.427v-0.213h0.48v-0.107h-0.64v0.853h0.64v-0.16h-0.48v-0.213z">
            </path>
        </symbol>
        <symbol id="icon-yaco" viewBox="0 0 57 32">
            <path
                d="M20.267 3.733l3.733 3.52h-6.933v17.173h18.133v-6.56l3.733 3.52v-17.653h-18.667zM35.040 17.44l-10.613-9.973h10.613v10.027zM31.733 21.92h-11.787v-11.52h0.8v10.72h10.987v0.8zM22.72 26.72l-0.427 0.907-0.427-0.96h-0.373l0.64 1.173v0.747h0.32v-0.747l0.64-1.173h-0.373zM23.253 28.64l0.16-0.48h0.747l0.16 0.48h0.32l-0.64-1.973h-0.32l-0.747 1.973h0.32zM23.787 27.147l0.267 0.747h-0.533l0.267-0.747zM25.547 27.84l-0.107 0.267c0 0.16 0.053 0.267 0.213 0.373 0.107 0.107 0.213 0.16 0.427 0.16 0.16 0 0.32 0 0.48-0.16l0.107 0.16h0.373l-0.267-0.373c0.107-0.107 0.16-0.32 0.16-0.533h-0.267c0 0.107 0 0.213-0.107 0.32l-0.373-0.427 0.16-0.107 0.16-0.16c0.044-0.066 0.070-0.147 0.070-0.234 0-0.117-0.047-0.223-0.123-0.3l0 0c-0.082-0.067-0.187-0.107-0.302-0.107-0.006 0-0.013 0-0.019 0l0.001-0c-0.015-0.002-0.033-0.002-0.050-0.002-0.122 0-0.235 0.041-0.324 0.11l0.001-0.001c-0.107 0.107-0.16 0.213-0.16 0.373l0.053 0.16 0.16 0.267c-0.103 0.059-0.191 0.13-0.266 0.212l-0.001 0.001zM26.4 28.267c-0.088 0.067-0.199 0.107-0.32 0.107v0l-0.213-0.053c-0.065-0.049-0.107-0.126-0.107-0.213v0c0-0.107 0.053-0.213 0.16-0.267h0.053l0.427 0.427zM26.027 27.467l-0.107-0.32v-0.16h0.373l0.053 0.16-0.053 0.16-0.213 0.16zM29.12 28.48c0.16-0.107 0.213-0.267 0.213-0.48h-0.32c0 0.16 0 0.213-0.107 0.267-0.053 0.107-0.16 0.107-0.32 0.107-0.004 0-0.009 0-0.013 0-0.126 0-0.238-0.063-0.306-0.159l-0.001-0.001-0.107-0.48v-0.16c0-0.213 0.053-0.373 0.16-0.48 0.053-0.107 0.16-0.107 0.32-0.107l0.267 0.053 0.107 0.32h0.32c0-0.213-0.053-0.373-0.213-0.533l-0.533-0.107c-0.107 0-0.267 0-0.373 0.107l-0.267 0.267c-0.069 0.137-0.109 0.298-0.109 0.469 0 0.023 0.001 0.045 0.002 0.067l-0-0.003v0.16c0 0.16 0 0.32 0.107 0.427 0.053 0.16 0.16 0.267 0.267 0.32l0.373 0.107c0.267 0 0.427-0.053 0.533-0.16zM31.093 28.213l0.053-0.533v-0.053c0-0.213 0-0.373-0.107-0.533-0.13-0.223-0.368-0.371-0.64-0.373h-0c-0.16 0-0.32 0-0.427 0.107-0.107 0.053-0.213 0.16-0.267 0.32-0.107 0.107-0.107 0.267-0.107 0.48v0.107c0 0.16 0 0.32 0.107 0.48 0 0.16 0.16 0.267 0.267 0.32l0.427 0.107c0.16 0 0.267 0 0.373-0.107 0.16-0.053 0.213-0.213 0.32-0.32zM30.72 27.147l0.107 0.48v0.107c0 0.213 0 0.373-0.107 0.48l-0.32 0.16c-0.019 0.003-0.041 0.005-0.063 0.005-0.129 0-0.242-0.065-0.309-0.164l-0.001-0.001-0.107-0.533v-0.053c0-0.213 0-0.373 0.107-0.533l0.373-0.107c0.107 0 0.213 0 0.32 0.16z">
            </path>
        </symbol>
        <symbol id="icon-close-modal" viewBox="0 0 32 32">
            <path
                d="M32 3.2l-3.2-3.2-12.8 12.8-12.8-12.8-3.2 3.2 12.8 12.8-12.8 12.8 3.2 3.2 12.8-12.8 12.8 12.8 3.2-3.2-12.8-12.8 12.8-12.8z">
            </path>
        </symbol>
        <symbol id="icon-send" viewBox="0 0 32 32">
            <path fill="#fff" style="fill: var(--color1, #fff)"
                d="M32 0l-32 18 10.267 3.733 15.733-14.667-12 16v8.933l5.733-6.667 7.333 2.667 4.933-28z"></path>
        </symbol>
        <symbol id="icon-person-black" viewBox="0 0 32 32">
            <path
                d="M16 16c2.946 0 5.333-2.388 5.333-5.333s-2.388-5.333-5.333-5.333v0c-2.946 0-5.333 2.388-5.333 5.333s2.388 5.333 5.333 5.333v0zM16 18.667c-3.556 0-10.667 1.778-10.667 5.333v1.422c0 0.711 0.533 1.244 1.422 1.244h18.489c0.889 0 1.422-0.533 1.422-1.422v-1.244c0-3.556-7.111-5.333-10.667-5.333z">
            </path>
        </symbol>
        <symbol id="icon-phone-black" viewBox="0 0 32 32">
            <path
                d="M24.889 19.733l-3.2-0.356c-0.889 0-1.778 0.178-2.133 0.711l-2.489 2.489c-3.556-1.778-6.578-4.978-8.356-8.533l2.311-2.489c0.533-0.533 0.889-1.244 0.711-1.956l-0.356-3.378c0-1.244-1.244-2.133-2.489-2.133h-2.311c-1.422 0-2.667 1.067-2.489 2.667 0.711 10.844 9.422 19.556 20.444 20.444 1.422 0 2.667-1.244 2.667-2.667v-2.133c0-1.422-1.067-2.489-2.311-2.667z">
            </path>
        </symbol>
        <symbol id="icon-email-black" viewBox="0 0 32 32">
            <path
                d="M26.667 5.333h-21.333c-1.422 0-2.667 1.244-2.667 2.667v16c0 1.422 1.244 2.667 2.667 2.667h21.333c1.422 0 2.667-1.244 2.667-2.667v-16c0-1.422-1.244-2.667-2.667-2.667zM26.133 11.022l-9.422 5.867c-0.356 0.356-1.067 0.356-1.422 0l-9.422-5.867c-0.281-0.199-0.463-0.523-0.463-0.889 0-0.599 0.486-1.085 1.085-1.085 0.233 0 0.449 0.073 0.626 0.198l-0.003-0.002 8.889 5.333 8.889-5.333c0.173-0.123 0.389-0.196 0.622-0.196 0.599 0 1.085 0.486 1.085 1.085 0 0.366-0.181 0.69-0.459 0.887l-0.003 0.002z">
            </path>
        </symbol>
        <symbol id="icon-select" viewBox="0 0 42 32">
            <path fill="#fff" style="fill: var(--color1, #fff); stroke: var(--color1, #fff)" stroke="#fff"
                stroke-linejoin="miter" stroke-linecap="butt" stroke-miterlimit="4" stroke-width="0.64"
                d="M6.4 15.36l-0.32-0.32-3.2 2.88v0.32l11.2 10.88h0.32l24.32-23.040v-0.32l-3.2-2.88-21.12 20.16-8-7.68z">
            </path>
        </symbol>
        <symbol id="icon-menu-close" viewBox="0 0 32 32">
            <path
                d="M31.495 3.2l-3.368-3.2-12.463 12.632-12.295-12.632-3.368 3.2 12.632 12.463-12.632 12.632 3.2 3.2 12.463-12.632 12.632 12.632 3.2-3.368-12.632-12.463 12.632-12.295z">
            </path>
        </symbol>
        <symbol id="icon-menu-open" viewBox="0 0 48 32">
            <path d="M0 5.4v-5.4h48v5.4h-48zM0 18.6h48v-5.2h-48v5.2zM0 32h48v-5.4h-48v5.4z"></path>
        </symbol>
    </defs>
</svg>